<svg version="1.1" xmlns="http://www.w3.org/2000/svg" xmlns:xlink="http://www.w3.org/1999/xlink" width="512.000000pt" height="512.000000pt" viewBox="0,0,255.99536,255.99536"><g fill="#ff0000" fill-rule="nonzero" stroke="none" stroke-width="1" stroke-linecap="butt" stroke-linejoin="miter" stroke-miterlimit="10" stroke-dasharray="" stroke-dashoffset="0" font-family="none" font-weight="none" font-size="none" text-anchor="none" style="mix-blend-mode: normal"><g transform="translate(-0.00164,-0.0379) scale(0.5,0.5)"><g transform="translate(0,512) scale(0.1,-0.1)"><path d="M1140,5111c-63,-21 -888,-355 -932,-377c-59,-30 -123,-86 -154,-135c-57,-91 -54,28 -54,-2039c0,-2069 -3,-1948 55,-2040c29,-47 96,-105 155,-135c25,-12 245,-103 490,-201c403,-161 452,-179 515,-182c39,-2 89,1 112,7c90,24 170,114 198,222c23,84 22,4567 0,4653c-40,154 -130,229 -280,233c-44,1 -91,-2 -105,-6zM1310,4912c15,-16 33,-46 39,-68c15,-55 15,-4513 0,-4568c-16,-58 -58,-96 -106,-96c-27,0 -175,55 -483,178c-245,98 -458,186 -475,194c-39,21 -81,66 -94,101c-15,40 -15,3774 0,3814c14,38 56,81 104,106c22,11 234,98 470,193c475,191 494,196 545,146z"></path><path d="M1083,2903c-13,-2 -32,-16 -43,-30c-19,-24 -20,-40 -20,-310c0,-185 4,-291 11,-305c17,-31 71,-50 108,-37c58,20 61,39 61,338c0,154 -4,281 -10,296c-8,21 -68,60 -82,54c-2,-1 -13,-4 -25,-6z"></path><path d="M1722,4760c-29,-28 -37,-64 -21,-101c24,-60 16,-59 711,-59c591,0 636,-2 673,-19c50,-22 99,-70 128,-125l22,-41l3,-690c2,-635 4,-691 20,-708c27,-30 60,-39 99,-26c65,21 63,-2 63,721c0,371 -4,678 -10,712c-25,157 -134,284 -288,337c-52,18 -93,19 -717,19c-650,0 -662,0 -683,-20z"></path><path d="M4122,3480c-26,-24 -36,-60 -27,-92c4,-13 167,-184 363,-380l357,-358h-1442h-1442l-28,-24c-23,-20 -28,-32 -27,-66c1,-29 8,-49 23,-63l22,-22l1444,-5l1445,-5l-355,-355c-374,-373 -384,-386 -354,-441c19,-36 40,-48 84,-49c39,0 46,7 487,448l448,447v45v45l-448,447c-442,443 -448,448 -488,448c-27,0 -48,-7 -62,-20z"></path><path d="M3272,2115l-31,-26l-3,-687c-3,-673 -3,-688 -24,-732c-24,-53 -72,-102 -123,-127c-33,-17 -86,-18 -681,-23c-355,-3 -653,-9 -663,-14c-27,-13 -49,-63 -42,-95c3,-16 16,-38 29,-50l23,-22l669,3l669,3l72,34c131,61 222,183 244,323c6,37 8,333 7,725c-3,654 -3,663 -24,683c-11,11 -36,23 -55,26c-28,5 -41,1 -67,-21z"></path></g></g></g></svg>