<svg version="1.1" xmlns="http://www.w3.org/2000/svg" xmlns:xlink="http://www.w3.org/1999/xlink" width="48px" height="48px" viewBox="0,0,255.99536,255.99536"><g fill="none" fill-rule="nonzero" stroke="none" stroke-width="1" stroke-linecap="butt" stroke-linejoin="miter" stroke-miterlimit="10" stroke-dasharray="" stroke-dashoffset="0" font-family="none" font-weight="none" font-size="none" text-anchor="none" style="mix-blend-mode: normal"><g transform="translate(-0.00232,-0.00232) scale(5.33333,5.33333)"><path d="M40,42h-32c-1.1,0 -2,-0.9 -2,-2v-32c0,-1.1 0.9,-2 2,-2h32c1.1,0 2,0.9 2,2v32c0,1.1 -0.9,2 -2,2z" fill="#ff9800"></path><path d="M21,6h6v7h-6z" fill="#ffb74d"></path><path d="M29,37h9v1h-9zM35,32h2v4h-2z" fill="#b86d00"></path><path d="M36,30l-2,3h4zM30,32h2v4h-2z" fill="#b86d00"></path><path d="M31,30l-2,3h4z" fill="#b86d00"></path></g></g></svg>