<svg version="1.1" xmlns="http://www.w3.org/2000/svg" xmlns:xlink="http://www.w3.org/1999/xlink" width="48px" height="48px" viewBox="0,0,255.99536,255.99536"><g fill="none" fill-rule="nonzero" stroke="none" stroke-width="1" stroke-linecap="butt" stroke-linejoin="miter" stroke-miterlimit="10" stroke-dasharray="" stroke-dashoffset="0" font-family="none" font-weight="none" font-size="none" text-anchor="none" style="mix-blend-mode: normal"><g transform="translate(-0.00232,-0.00232) scale(5.33333,5.33333)"><path d="M40,41h-32c-2.2,0 -4,-1.8 -4,-4v-26c0,-2.2 1.8,-4 4,-4h32c2.2,0 4,1.8 4,4v26c0,2.2 -1.8,4 -4,4z" fill="#fcc419"></path><path d="M35,13c-1.65685,0 -3,1.34315 -3,3c0,1.65685 1.34315,3 3,3c1.65685,0 3,-1.34315 3,-3c0,-1.65685 -1.34315,-3 -3,-3z" fill="#fff9c4"></path><path d="M20,16l-11,16h22z" fill="#942a09"></path><path d="M31,22l-8,10h16z" fill="#bf360c"></path></g></g></svg>